# xmcd
#
# Track frame offsets: 
#        150
#        21717
#        36430
#        52132
#        69791
#        81850
#        102721
#        120666
#        138472
#        148740
#        166525
#        177023
#        189430
#        202770
#        225626
#
# Disc length: 3225 seconds
#
# Revision: 2
# Processed by: cddbd v1.5.2PL0 Copyright (c) Steve Scherf et al.
# Submitted via: ExactAudioCopy v1.0b3
#
DISCID=d10c970f
DTITLE=Guy Davis - Legacy
DYEAR=2004
DGENRE=Blues
TTITLE0=Uncle Tom's Dead
TTITLE1=Pay Day
TTITLE2=Run Molly Run
TTITLE3=Come Back Baby
TTITLE4=Rolling In My Sweet Baby's Arms
TTITLE5=I Just Can't Help Loving You
TTITLE6=Drop Down Mama
TTITLE7=Things About Coming My Way
TTITLE8=Red Goose
TTITLE9=Hikin' Jerry
TTITLE10=I'm Gone
TTITLE11=See See Rider
TTITLE12=Long As You Get It Done
TTITLE13=Cypress Grove
TTITLE14=We All Need More Kindness In This World
EXTD=YEAR: 2004
EXTT0=
EXTT1=
EXTT2=
EXTT3=
EXTT4=
EXTT5=
EXTT6=
EXTT7=
EXTT8=
EXTT9=
EXTT10=
EXTT11=
EXTT12=
EXTT13=
EXTT14=
PLAYORDER=
